# xmcd
#
# Track frame offsets:
#	150
#	5221
#	26429
#	45781
#	72150
#	93335
#	112560
#	130205
#	147115
#	165070
#	187305
#	205682
#	222770
#	247023
#	266209
#	289216
#
# Disc length: 4145 seconds
#
# Revision: 0
# Processed by: cddbd v1.5.2PL0 Copyright (c) Steve Scherf et al.
# Submitted via: EasyCDDAExtractor 15.3.0.1
#
DISCID=dd102f10
DTITLE=Myriam Hernandez - Contigo En Concierto
DYEAR=2005
DGENRE=Latin
TTITLE0=Obertura
TTITLE1=El Hombre Que Yo Amo
TTITLE2=Ay Amor
TTITLE3=Eres
TTITLE4=Quiero Saber
TTITLE5=Ese Hombre
TTITLE6=Te Pareces Tanto A El
TTITLE7=Tonto
TTITLE8=Herida
TTITLE9=Se Me Fue
TTITLE10=Mio
TTITLE11=Un Hombre Secreto
TTITLE12=Peligroso Amor
TTITLE13=He Vuelto Por Ti
TTITLE14=No Te He Robado Nada
TTITLE15=Yo Soy La Unica
EXTD=
EXTT0=
EXTT1=
EXTT2=
EXTT3=
EXTT4=
EXTT5=
EXTT6=
EXTT7=
EXTT8=
EXTT9=
EXTT10=
EXTT11=
EXTT12=
EXTT13=
EXTT14=
EXTT15=
PLAYORDER=
